<svg width="37" height="39" viewBox="0 0 37 39" fill="none" xmlns="http://www.w3.org/2000/svg">
<path d="M17.3215 39C17.3215 39 43.094 38.4545 35.6503 12.2682C35.6503 12.2682 35.3766 29.739 17.3215 39Z" fill="#94C21A"/>
<path d="M0.778624 15.4483C1.41739 11.5496 2.97603 8.88373 5.04144 6.77277C7.10686 4.66182 9.6772 3.11417 12.4466 2.16016C15.216 1.20615 18.164 0.918791 21.0603 1.32054C23.9565 1.7223 26.9734 2.87688 29.393 4.55066L26.6945 8.06346C24.8459 6.78466 22.7151 5.92209 20.5023 5.61515C18.2895 5.3082 16.061 5.56488 13.9451 6.29376C11.8293 7.02264 9.83901 8.43333 8.26099 10.0461C6.68298 11.6589 5.49203 13.6602 4.78072 15.8209L0.778624 15.4483Z" fill="#00A0E3"/>
<path d="M24.2373 13.2528C13.2151 20.9703 0.152888 17.5773 0.152888 17.5773C0.152888 17.6261 0.126816 17.6704 0.0746714 17.9498C0.0306975 18.1855 -0.0687263 20.3715 0.0746714 22.0614C0.189389 23.4133 0.5657 25.3524 0.765587 26.1863C14.5943 26.3034 23.6136 20.6465 26.3947 17.8035C31.205 13.2528 34.9073 5.34903 33.9687 0C32.8867 6.174 28.0825 10.5071 24.2373 13.2528Z" fill="#00A0E3"/>
<path d="M5.83666 33.7707C3.75088 32.3337 2.1735 29.2068 2.1735 29.2068C26.3686 28.1423 33.721 12.9468 33.721 12.9468C27.4897 30.8966 5.83666 33.7707 5.83666 33.7707Z" fill="#94C21A"/>
</svg>
