<svg width="18" height="19" viewBox="0 0 18 19" fill="none" xmlns="http://www.w3.org/2000/svg">
<path d="M12.7503 14.5936L11.7508 18.5L14.0008 17.6L16.2508 18.5L15.3508 14.5388M16.7008 12.2C16.7008 13.6912 15.492 14.9 14.0008 14.9C12.5096 14.9 11.3008 13.6912 11.3008 12.2C11.3008 10.7088 12.5096 9.5 14.0008 9.5C15.492 9.5 16.7008 10.7088 16.7008 12.2Z" stroke="#4D4D4D" stroke-linecap="round" stroke-linejoin="round"/>
<path d="M15.7999 7.7C15.7999 4.30588 15.7999 2.60883 14.7455 1.55441C13.6911 0.5 11.994 0.5 8.59994 0.5H7.70003C4.30595 0.5 2.6089 0.5 1.55449 1.5544C0.500072 2.60881 0.500063 4.30585 0.500027 7.69994L0.5 11.2999C0.499973 14.6941 0.499955 16.3911 1.55437 17.4456C2.60879 18.5 4.30586 18.5 7.70003 18.5H9.49994" stroke="#4D4D4D" stroke-linecap="round" stroke-linejoin="round"/>
<path d="M4.55078 5H11.7508M4.55078 9.5H8.60078" stroke="#4D4D4D" stroke-linecap="round" stroke-linejoin="round"/>
</svg>
