<svg width="21" height="19" viewBox="0 0 21 19" fill="none" xmlns="http://www.w3.org/2000/svg">
<path d="M2.5 0.5H1.5C0.94772 0.5 0.5 0.94772 0.5 1.5V15.5L2 18.5L3.5 15.5V1.5C3.5 0.94772 3.05228 0.5 2.5 0.5Z" stroke="#4D4D4D" stroke-linejoin="round"/>
<path d="M19.5 9.5013V5.50072C19.5 3.14336 19.5 1.96468 18.7678 1.23234C18.0355 0.5 16.857 0.5 14.5 0.5H11.5C9.143 0.5 7.96447 0.5 7.23223 1.23234C6.5 1.96468 6.5 3.14336 6.5 5.50072V13.5019C6.5 15.8592 6.5 17.0379 7.23223 17.7703C7.85264 18.3908 8.7934 18.4855 10.5 18.5" stroke="#4D4D4D" stroke-linecap="round" stroke-linejoin="round"/>
<path d="M10.5 4.5H15.5" stroke="#4D4D4D" stroke-linecap="round" stroke-linejoin="round"/>
<path d="M10.5 8.5H15.5" stroke="#4D4D4D" stroke-linecap="round" stroke-linejoin="round"/>
<path d="M12.5 16.5C12.5 16.5 14 17 15 18.5C15 18.5 16.5 14.5 20.5 12.5" stroke="#4D4D4D" stroke-linecap="round" stroke-linejoin="round"/>
<path d="M0.5 4.5H3.5" stroke="#4D4D4D" stroke-linecap="round" stroke-linejoin="round"/>
</svg>
