<svg width="28" height="39" viewBox="0 0 28 39" fill="none" xmlns="http://www.w3.org/2000/svg">
<path d="M14 28.75V38M8.42857 17.206C8.4282 17.8944 8.23508 18.569 7.87091 19.154C7.50674 19.739 6.98597 20.2112 6.36714 20.5175L3.06143 22.1825C2.44261 22.4888 1.92183 22.961 1.55766 23.546C1.19349 24.131 1.00037 24.8056 1 25.494V26.9C1 27.3907 1.19566 27.8612 1.54394 28.2081C1.89223 28.5551 2.3646 28.75 2.85714 28.75H25.1429C25.6354 28.75 26.1078 28.5551 26.4561 28.2081C26.8043 27.8612 27 27.3907 27 26.9V25.494C26.9996 24.8056 26.8065 24.131 26.4423 23.546C26.0782 22.961 25.5574 22.4888 24.9386 22.1825L21.6329 20.5175C21.014 20.2112 20.4933 19.739 20.1291 19.154C19.7649 18.569 19.5718 17.8944 19.5714 17.206V10.25C19.5714 9.75935 19.7671 9.2888 20.1154 8.94185C20.4637 8.59491 20.936 8.4 21.4286 8.4C22.4137 8.4 23.3584 8.01018 24.055 7.3163C24.7515 6.62241 25.1429 5.6813 25.1429 4.7C25.1429 3.7187 24.7515 2.77759 24.055 2.0837C23.3584 1.38982 22.4137 1 21.4286 1H6.57143C5.58634 1 4.6416 1.38982 3.94503 2.0837C3.24847 2.77759 2.85714 3.7187 2.85714 4.7C2.85714 5.6813 3.24847 6.62241 3.94503 7.3163C4.6416 8.01018 5.58634 8.4 6.57143 8.4C7.06397 8.4 7.53634 8.59491 7.88463 8.94185C8.23291 9.2888 8.42857 9.75935 8.42857 10.25V17.206Z" stroke="#00A0E3" stroke-width="2" stroke-linecap="round" stroke-linejoin="round"/>
</svg>
