<svg width="145" height="143" viewBox="0 0 145 143" fill="none" xmlns="http://www.w3.org/2000/svg">
<path d="M112.035 19.4949L92.2676 0H75.7852L95.5527 19.4949H112.035ZM6.59863 0H0V19.4949H26.3662L6.59863 0ZM69.2148 19.4949L49.4189 0H32.9365L52.7041 19.4949H69.2148ZM118.634 45.4975H92.2676L112.035 26.0025H95.5527L75.7852 45.4975H49.4189L69.1865 26.0025H52.7041L32.9365 45.4975H6.59863L26.3662 26.0025H0V130.013C0 137.163 5.91895 143 13.1689 143H131.803C139.081 143 144.972 137.163 144.972 130.013V26.0025H138.373L118.634 45.4975ZM52.7324 123.505V64.9924L105.465 94.2348L52.7324 123.505ZM118.634 0L138.401 19.4949H145V0H118.634Z" fill="#737272"/>
</svg>
