<svg width="31" height="36" viewBox="0 0 31 36" fill="none" xmlns="http://www.w3.org/2000/svg">
<path d="M5.58333 17.6667H17.6667M5.58333 22.5H22.5M5.58333 27.3333H12.8333M29.75 29.75V12.8333L17.6667 0.75H5.58333C4.30145 0.75 3.07208 1.25922 2.16565 2.16565C1.25922 3.07208 0.75 4.30145 0.75 5.58333V29.75C0.75 31.0319 1.25922 32.2613 2.16565 33.1677C3.07208 34.0741 4.30145 34.5833 5.58333 34.5833H24.9167C26.1985 34.5833 27.4279 34.0741 28.3343 33.1677C29.2408 32.2613 29.75 31.0319 29.75 29.75Z" stroke="#1D741B" stroke-width="1.5" stroke-linecap="round" stroke-linejoin="round"/>
<path d="M17.6665 0.75V8C17.6665 9.28188 18.1757 10.5113 19.0822 11.4177C19.9886 12.3241 21.218 12.8333 22.4998 12.8333H29.7498" stroke="#1D741B" stroke-width="1.5" stroke-linecap="round" stroke-linejoin="round"/>
</svg>
