<svg width="71" height="83" viewBox="0 0 71 83" fill="none" xmlns="http://www.w3.org/2000/svg">
<path d="M12.5 41.25H41.25M12.5 52.75H52.75M12.5 64.25H29.75M70 70V29.75L41.25 1H12.5C9.45001 1 6.52494 2.2116 4.36827 4.36827C2.2116 6.52494 1 9.45001 1 12.5V70C1 73.05 2.2116 75.9751 4.36827 78.1317C6.52494 80.2884 9.45001 81.5 12.5 81.5H58.5C61.55 81.5 64.4751 80.2884 66.6317 78.1317C68.7884 75.9751 70 73.05 70 70Z" stroke="#8E928E" stroke-width="2" stroke-linecap="round" stroke-linejoin="round"/>
<path d="M41.248 1V18.25C41.248 21.3 42.4597 24.2251 44.6163 26.3817C46.773 28.5384 49.6981 29.75 52.748 29.75H69.998" stroke="#8E928E" stroke-width="2" stroke-linecap="round" stroke-linejoin="round"/>
</svg>
