<svg width="21" height="21" viewBox="0 0 21 21" fill="none" xmlns="http://www.w3.org/2000/svg">
<path d="M10 2H3C2.46957 2 1.96086 2.21071 1.58579 2.58579C1.21071 2.96086 1 3.46957 1 4V18C1 18.5304 1.21071 19.0391 1.58579 19.4142C1.96086 19.7893 2.46957 20 3 20H17C17.5304 20 18.0391 19.7893 18.4142 19.4142C18.7893 19.0391 19 18.5304 19 18V11" stroke="black" stroke-width="2" stroke-linecap="round" stroke-linejoin="round"/>
<path d="M16.3751 1.62132C16.7729 1.2235 17.3125 1 17.8751 1C18.4377 1 18.9773 1.2235 19.3751 1.62132C19.7729 2.01914 19.9964 2.55871 19.9964 3.12132C19.9964 3.68393 19.7729 4.2235 19.3751 4.62132L10.3621 13.6353C10.1246 13.8726 9.8313 14.0462 9.50909 14.1403L6.63609 14.9803C6.55005 15.0054 6.45883 15.0069 6.372 14.9847C6.28517 14.9624 6.20592 14.9173 6.14254 14.8539C6.07916 14.7905 6.03398 14.7112 6.01174 14.6244C5.98949 14.5376 5.991 14.4464 6.01609 14.3603L6.85609 11.4873C6.95062 11.1654 7.12463 10.8724 7.36209 10.6353L16.3751 1.62132Z" stroke="black" stroke-width="2" stroke-linecap="round" stroke-linejoin="round"/>
</svg>
