<svg width="29" height="29" viewBox="0 0 29 29" fill="none" xmlns="http://www.w3.org/2000/svg">
<path d="M17.2382 9.07653H4.53619C4.29556 9.07653 4.06479 8.98094 3.89464 8.81079C3.7245 8.64064 3.62891 8.40987 3.62891 8.16924V4.5401C3.62891 4.29947 3.7245 4.0687 3.89464 3.89855C4.06479 3.7284 4.29556 3.63281 4.53619 3.63281H17.2382C17.4788 3.63281 17.7096 3.7284 17.8797 3.89855C18.0499 4.0687 18.1455 4.29947 18.1455 4.5401V8.16924C18.1455 8.40987 18.0499 8.64064 17.8797 8.81079C17.7096 8.98094 17.4788 9.07653 17.2382 9.07653ZM5.44348 7.26196H16.3309V5.39295H5.44348V7.26196Z" fill="#515151"/>
<path d="M17.2382 10.9609H4.53619C4.29556 10.9609 4.06479 11.0565 3.89464 11.2267C3.7245 11.3968 3.62891 11.6276 3.62891 11.8682V15.4248C3.62891 15.6654 3.7245 15.8962 3.89464 16.0663C4.06479 16.2365 4.29556 16.3321 4.53619 16.3321H14.843L18.1455 12.9751V11.8682C18.1455 11.6276 18.0499 11.3968 17.8797 11.2267C17.7096 11.0565 17.4788 10.9609 17.2382 10.9609ZM16.3309 14.5175H5.44348V12.7029H16.3309V14.5175Z" fill="#515151"/>
<path d="M8.22001 26.774V26.7196L8.51034 25.4584H1.81457V1.81457H19.9603V11.1143L21.7749 9.39948V0.907286C21.7749 0.666659 21.6793 0.435887 21.5091 0.265738C21.339 0.0955887 21.1082 0 20.8676 0H0.907286C0.666659 0 0.435887 0.0955887 0.265738 0.265738C0.0955887 0.435887 0 0.666659 0 0.907286V26.3113C0 26.5519 0.0955887 26.7827 0.265738 26.9528C0.435887 27.123 0.666659 27.2186 0.907286 27.2186H8.16557C8.17292 27.0693 8.19111 26.9207 8.22001 26.774Z" fill="#515151"/>
<path d="M18.1452 15.5781L17.4375 16.2949C17.6131 16.2587 17.774 16.1713 17.8999 16.0437C18.0259 15.9162 18.1112 15.7541 18.1452 15.5781Z" fill="#515151"/>
<path d="M3.62891 22.6304C3.62891 22.8711 3.7245 23.1018 3.89464 23.272C4.06479 23.4421 4.29556 23.5377 4.53619 23.5377H8.92745L9.19964 22.3582L9.31759 21.8592V21.8139H5.44348V19.963H11.1957L13.0102 18.1484H4.53619C4.29556 18.1484 4.06479 18.244 3.89464 18.4142C3.7245 18.5843 3.62891 18.8151 3.62891 19.0557V22.6304Z" fill="#515151"/>
<path d="M28.5729 13.3071L25.5153 10.2496C25.3796 10.1135 25.2184 10.0055 25.0409 9.93189C24.8634 9.85823 24.6732 9.82031 24.481 9.82031C24.2888 9.82031 24.0986 9.85823 23.9211 9.93189C23.7436 10.0055 23.5824 10.1135 23.4467 10.2496L11.0078 22.761L9.98257 27.1251C9.94418 27.3134 9.94332 27.5073 9.98003 27.6959C10.0167 27.8846 10.0903 28.0641 10.1965 28.2242C10.3027 28.3843 10.4394 28.5219 10.5989 28.6291C10.7583 28.7363 10.9374 28.811 11.1257 28.8489C11.2193 28.858 11.3135 28.858 11.407 28.8489C11.5182 28.8663 11.6315 28.8663 11.7427 28.8489L16.143 27.8781L28.5729 15.4211C28.7086 15.2862 28.8164 15.1257 28.8899 14.949C28.9635 14.7723 29.0013 14.5827 29.0013 14.3913C29.0013 14.1999 28.9635 14.0104 28.8899 13.8336C28.8164 13.6569 28.7086 13.4965 28.5729 13.3616V13.3071ZM15.2176 26.2269L11.8969 26.9618L12.7044 23.6683L22.0313 14.2416L24.5899 16.8002L15.2176 26.2269ZM25.6151 15.7749L23.0566 13.2164L24.4991 11.792L27.0758 14.3686L25.6151 15.7749Z" fill="#515151"/>
</svg>
