<svg width="26" height="26" viewBox="0 0 26 26" fill="none" xmlns="http://www.w3.org/2000/svg">
<path fill-rule="evenodd" clip-rule="evenodd" d="M8.45665 8.33115C8.42147 8.32394 8.38511 8.32532 8.35054 8.33516C8.31598 8.34501 8.2842 8.36305 8.25778 8.38781C8.23137 8.41257 8.21108 8.44334 8.19858 8.47762C8.18607 8.51189 8.1817 8.5487 8.18582 8.58502C8.08832 9.20206 7.9594 9.81909 7.80774 10.4251C7.43941 11.8578 6.96383 13.2807 6.59658 14.7024C6.48825 15.1329 6.17409 15.7057 6.05492 16.2345C5.97909 16.527 5.97909 16.8349 6.05492 17.1285C6.25859 17.6076 6.62258 17.9984 7.08408 18.2302C8.00924 18.6408 8.98423 18.9256 9.98305 19.079C10.7078 19.2446 11.4217 19.4101 12.1465 19.5426C12.6339 19.6419 13.1312 19.7192 13.6176 19.7854C14.0018 19.8472 14.3879 19.8656 14.7757 19.8406C15.0996 19.8075 15.4073 19.6806 15.6629 19.4764C16.0204 19.143 16.2891 18.7214 16.4418 18.2511C16.6946 17.3121 16.8932 16.3607 17.0377 15.3967C17.2532 14.5699 17.7072 12.9054 17.9238 12.0896C18.016 11.7623 18.0741 11.426 18.0972 11.0863C18.1112 10.7979 18.0353 10.5124 17.8805 10.2705C17.6746 9.99452 17.4077 9.77179 17.1016 9.6204C16.7109 9.42073 16.3015 9.26171 15.8796 9.14576C15.218 8.92279 14.5471 8.73551 13.8668 8.58392C12.2873 8.26381 10.6211 8.07616 9.08498 7.77924C9.01363 7.76876 8.941 7.7855 8.88102 7.82625C8.82104 7.86699 8.77793 7.92887 8.75998 8C8.74708 8.07303 8.76243 8.14831 8.80283 8.21006C8.84323 8.2718 8.90552 8.3152 8.97665 8.33115C9.63639 8.47464 10.307 8.59606 10.9775 8.70644C10.815 9.36652 10.6417 10.0178 10.4695 10.6679L8.30607 10.4692C8.43607 9.8511 8.55523 9.23517 8.63107 8.606C8.6412 8.54625 8.62903 8.48481 8.59695 8.43375C8.56488 8.38268 8.51522 8.34569 8.45773 8.33004M7.59216 13.5113C8.29769 13.5958 8.99845 13.7174 9.69164 13.8756C9.69164 14.029 9.61581 14.1725 9.58331 14.3271C9.50748 14.6582 9.44248 14.9883 9.36664 15.3183C8.59857 15.2521 7.85216 15.241 7.11658 15.2521C7.17074 15.0975 7.22491 14.943 7.25741 14.8116C7.35491 14.3812 7.47408 13.9518 7.59324 13.5102M6.81433 16.8173C6.73998 16.603 6.73998 16.3692 6.81433 16.155C6.81433 16.0336 6.87933 15.9232 6.92266 15.8018L8.27574 16.0004L9.16298 16.1771C9.05465 16.6627 8.93548 17.1484 8.80548 17.622C8.7907 17.6809 8.79544 17.7431 8.81894 17.799C8.84245 17.8549 8.88342 17.9013 8.93548 17.931C8.56801 17.859 8.20628 17.7594 7.85324 17.633C7.63012 17.5801 7.42084 17.4787 7.23968 17.3358C7.05851 17.1929 6.90974 17.0119 6.8035 16.8051L6.81433 16.8173ZM15.1668 18.7125C15.0114 18.8214 14.8254 18.8756 14.637 18.8671C14.3688 18.8685 14.1009 18.8463 13.8364 18.8008C13.2389 18.7215 12.6436 18.6258 12.0511 18.5138C11.456 18.4035 10.8392 18.2824 10.2008 18.1507C9.89747 18.0845 9.50856 18.0293 9.11965 17.952C9.17281 17.9537 9.22521 17.9387 9.26976 17.9091C9.31432 17.8795 9.34889 17.8367 9.36881 17.7864C9.55297 17.2908 9.73606 16.8062 9.90939 16.3095L10.8508 16.4751C12.1378 16.7069 13.4464 16.9277 14.6587 17.2257C14.6928 17.2358 14.7286 17.239 14.764 17.2351C14.7993 17.2311 14.8336 17.2202 14.8647 17.2027C14.8959 17.1853 14.9234 17.1618 14.9457 17.1335C14.968 17.1053 14.9846 17.0728 14.9945 17.038C15.0146 16.9857 15.0171 16.9281 15.0017 16.8741C14.9862 16.8202 14.9536 16.773 14.9089 16.74C14.8802 16.7171 14.8463 16.7019 14.8103 16.6959C13.9329 16.3647 13.0142 16.0556 12.062 15.8018C11.6611 15.6914 11.2614 15.6042 10.8508 15.5269C10.6341 15.5269 10.4175 15.4607 10.19 15.4276C10.2766 15.1627 10.3633 14.9088 10.4391 14.656C10.515 14.4021 10.5475 14.2586 10.5908 14.071L11.2408 14.2145L12.7109 14.5456C13.8906 14.8105 15.0595 15.0865 16.184 15.3956C16.0648 16.0126 15.9673 16.8062 15.7615 17.5336C15.6728 17.9746 15.4671 18.3824 15.1668 18.7125ZM16.2501 14.8326C15.3509 14.4794 14.4204 14.1262 13.4692 13.8292C13.025 13.6968 12.5917 13.5754 12.1378 13.465C11.6839 13.3546 11.2397 13.2773 10.7858 13.2111C10.8833 12.7707 10.9808 12.3413 11.0566 11.8998C11.061 11.8004 11.061 11.7011 11.0566 11.6017L12.57 11.9439L14.1289 12.253L16.8546 12.7939L16.2501 14.8326ZM13.7368 9.24621C14.3976 9.40074 15.0573 9.57735 15.7063 9.78597C16.0782 9.90666 16.4389 10.0575 16.7885 10.2385C16.977 10.3412 17.1427 10.4836 17.2749 10.6569C17.3377 10.7669 17.3643 10.8946 17.3507 11.0211C17.3211 11.2986 17.2634 11.5701 17.1774 11.8358L17.0691 12.1669C16.1493 11.8799 15.2296 11.5929 14.2882 11.3622C13.5475 11.1773 12.8006 11.019 12.049 10.8876L11.2159 10.7772C11.3134 10.116 11.4 9.45483 11.4867 8.80468C12.2331 8.93714 13.0012 9.08064 13.7368 9.24621ZM10.0806 12.1669C10.0047 12.476 9.92889 12.8071 9.86389 13.1261C9.14425 13.0596 8.42201 13.0264 7.69941 13.0268C7.88357 12.3424 8.04607 11.6603 8.20857 10.977L10.2745 11.4174L10.0806 12.1669ZM17.653 6.96352C17.43 6.93685 17.2095 6.89256 16.9932 6.83106C17.0799 6.6103 17.2099 6.35642 17.3291 6.08157C17.9466 4.68193 18.3355 3.17192 17.3291 2.04713C17.3063 2.01886 17.2783 1.99544 17.2467 1.9782C17.215 1.96096 17.1804 1.95024 17.1446 1.94666C17.0725 1.93941 17.0005 1.96166 16.9445 2.0085C16.8885 2.05534 16.853 2.12293 16.8459 2.19642C16.8388 2.26991 16.8606 2.34326 16.9066 2.40035C17.9888 3.86622 16.2468 5.49765 15.9013 6.80899C15.5557 8.12032 18.8761 8.13246 20.0656 7.74723L21.8509 7.23947C22.3059 7.02975 22.035 6.48888 21.7642 6.54407C19.5575 7.09598 19.4925 7.23947 17.653 6.96352Z" fill="#4D4D4D"/>
<path fill-rule="evenodd" clip-rule="evenodd" d="M18.5185 1.28926C17.1449 1.00337 17.7721 1.16894 8.56495 0C8.48927 0.00141421 8.41663 0.0306249 8.36039 0.0822594C8.30416 0.133894 8.26812 0.20448 8.25889 0.281034C8.24966 0.357589 8.26787 0.434964 8.31017 0.498927C8.35247 0.562891 8.41602 0.609143 8.48912 0.629174C17.0582 1.79701 17.329 1.80805 18.4102 2.05089C19.4935 2.29373 21.7967 5.28065 22.3492 6.38336C22.4745 6.57979 22.5352 6.81174 22.5225 7.04565C22.23 8.60975 21.0286 13.1519 20.6722 14.1873C20.3147 15.2249 19.9897 15.9744 19.6983 16.8895C19.5791 17.2427 18.616 21.5409 17.3832 21.9604C15.6846 22.5443 13.9534 21.7948 12.2548 21.7286C11.1725 21.7286 9.00912 21.5741 7.62354 21.3533C2.21451 20.4603 2.45284 20.5817 1.06726 19.6777C2.62508 17.9911 4.06482 13.769 4.84373 11.3549C5.52435 8.62826 6.0517 5.86423 6.42322 3.07633C6.50989 2.59065 7.27796 0.0883052 6.50989 0.342182C6.18489 0.441526 6.22822 0.938242 6.19572 1.14686C5.97906 2.52442 5.03873 7.8713 4.84373 8.75325C4.01454 12.0549 2.75538 15.2285 1.09976 18.1898C0.898988 18.4768 0.682685 18.7523 0.450853 19.0165C0.277521 19.1931 0.133078 19.3918 0.0175237 19.6126C-0.0157489 19.7687 -0.00141496 19.9314 0.0586057 20.079C0.118626 20.2265 0.221467 20.3519 0.353354 20.4382C0.939433 20.8908 1.59376 21.2451 2.29034 21.4869C5.54031 22.2397 8.84986 22.7044 12.1789 22.8755C13.8992 22.9417 15.7171 23.7353 17.6855 23.0521C19.4816 22.4229 20.4339 17.9248 20.6288 17.2968C20.9105 16.3817 21.268 15.4998 21.5594 14.5957C21.8519 13.6917 23.0522 9.08439 23.3556 7.28738C23.6481 5.68906 19.9041 1.58729 18.5185 1.29036" fill="#4D4D4D"/>
<path fill-rule="evenodd" clip-rule="evenodd" d="M25.0653 8.12358C24.7619 9.68879 23.15 15.9165 22.7925 16.9431C22.435 17.9674 22.1111 18.739 21.8186 19.654C21.6994 20.0072 20.7374 24.2956 19.5035 24.7139C17.8048 25.2989 16.0737 24.5483 14.375 24.4821C13.2939 24.4821 11.1294 24.3276 9.74491 24.1079C4.58395 23.2591 4.56229 23.4787 3.3728 22.7083C2.66864 22.3109 2.39781 23.0173 2.8203 23.3915C3.29697 23.7668 3.85271 24.0273 4.44312 24.1521C7.69318 24.9103 11.0019 25.3786 14.3317 25.5517C16.052 25.6179 17.8807 26.4016 19.8393 25.7283C21.798 25.0561 22.5877 20.6022 22.7383 19.9631C23.02 19.0591 23.3775 18.1771 23.67 17.2731C23.9614 16.3691 25.66 10.1402 25.9839 8.37635C26.1248 7.48447 25.2809 7.21955 25.0653 8.12247" fill="#4D4D4D"/>
</svg>
