<svg width="20" height="26" viewBox="0 0 20 26" fill="none" xmlns="http://www.w3.org/2000/svg">
<circle cx="10" cy="16" r="9" fill="#FFFBEA" stroke="#D97000" stroke-width="2"/>
<path d="M9.736 12.082C9.49333 12.082 9.288 11.998 9.12 11.83C8.952 11.662 8.868 11.4567 8.868 11.214C8.868 10.9713 8.952 10.766 9.12 10.598C9.288 10.43 9.49333 10.346 9.736 10.346C9.96933 10.346 10.1653 10.43 10.324 10.598C10.492 10.766 10.576 10.9713 10.576 11.214C10.576 11.4567 10.492 11.662 10.324 11.83C10.1653 11.998 9.96933 12.082 9.736 12.082ZM10.352 13.328V21H9.078V13.328H10.352Z" fill="#D97000"/>
</svg>
