<svg width="25" height="17" viewBox="0 0 25 17" fill="none" xmlns="http://www.w3.org/2000/svg">
<path fill-rule="evenodd" clip-rule="evenodd" d="M14.9873 15.1512C14.9873 15.388 15.0927 15.6151 15.2804 15.7825C15.468 15.95 15.7225 16.0441 15.9879 16.0441H23.9929C24.2583 16.0441 24.5128 15.95 24.7004 15.7825C24.8881 15.6151 24.9935 15.388 24.9935 15.1512V8.00856C24.9935 7.77177 24.8881 7.54467 24.7004 7.37723C24.5128 7.20979 24.2583 7.11573 23.9929 7.11573C23.7275 7.11573 23.473 7.20979 23.2853 7.37723C23.0977 7.54467 22.9923 7.77177 22.9923 8.00856V12.6513L15.7618 4.76401C15.6733 4.66761 15.5631 4.58881 15.4384 4.53268C15.3137 4.47656 15.1772 4.44435 15.0377 4.43812C14.8982 4.4319 14.7588 4.4518 14.6285 4.49655C14.4981 4.5413 14.3797 4.6099 14.2809 4.69794L9.10367 9.31745L1.78715 0.340916C1.6271 0.159319 1.39439 0.0401482 1.13792 0.00844808C0.881453 -0.023252 0.621199 0.0349864 0.411848 0.170925C0.202498 0.306863 0.0603517 0.509917 0.0152808 0.737416C-0.0297902 0.964915 0.0257232 1.19915 0.170155 1.39089L8.1751 11.212C8.26007 11.3165 8.3694 11.4032 8.49556 11.4663C8.62172 11.5294 8.76171 11.5674 8.90589 11.5776C9.05007 11.5878 9.19502 11.5699 9.33073 11.5253C9.46645 11.4807 9.58972 11.4104 9.69204 11.3192L14.9133 6.6586L21.8816 14.2584H15.9879C15.7225 14.2584 15.468 14.3525 15.2804 14.5199C15.0927 14.6873 14.9873 14.9144 14.9873 15.1512Z" fill="white"/>
</svg>
