<svg width="26" height="24" viewBox="0 0 26 24" fill="none" xmlns="http://www.w3.org/2000/svg">
<path d="M21 7H1.3125C0.964403 7 0.630564 7.13828 0.384422 7.38442C0.138281 7.63056 0 7.9644 0 8.3125V13.5625C0.00411428 16.3212 1.04806 18.9769 2.92359 21H1.3125C0.964403 21 0.630564 21.1383 0.384422 21.3844C0.138281 21.6306 0 21.9644 0 22.3125C0 22.6606 0.138281 22.9944 0.384422 23.2406C0.630564 23.4867 0.964403 23.625 1.3125 23.625H20.5625C20.9106 23.625 21.2444 23.4867 21.4906 23.2406C21.7367 22.9944 21.875 22.6606 21.875 22.3125C21.875 21.9644 21.7367 21.6306 21.4906 21.3844C21.2444 21.1383 20.9106 21 20.5625 21H18.9514C19.8944 19.9814 20.6366 18.794 21.1389 17.5C22.391 17.4638 23.5797 16.9409 24.4524 16.0423C25.3251 15.1436 25.813 13.9401 25.8125 12.6875V11.8125C25.8111 10.5366 25.3036 9.31335 24.4014 8.41115C23.4991 7.50894 22.2759 7.00145 21 7ZM19.25 13.5625C19.2472 15.1058 18.8164 16.6181 18.0054 17.9312C17.1944 19.2442 16.035 20.3066 14.6562 21H7.21875C5.84 20.3066 4.68064 19.2442 3.86963 17.9312C3.05863 16.6181 2.62778 15.1058 2.625 13.5625V9.625H19.25V13.5625ZM23.1875 12.6875C23.1871 13.1243 23.0559 13.551 22.8109 13.9126C22.5659 14.2742 22.2182 14.5541 21.8127 14.7164C21.8544 14.3332 21.8752 13.948 21.875 13.5625V9.80875C22.2649 9.97893 22.5968 10.2591 22.8299 10.615C23.063 10.9709 23.1873 11.3871 23.1875 11.8125V12.6875ZM5.25 3.9375V1.3125C5.25 0.964403 5.38828 0.630564 5.63442 0.384422C5.88056 0.138281 6.2144 0 6.5625 0C6.9106 0 7.24444 0.138281 7.49058 0.384422C7.73672 0.630564 7.875 0.964403 7.875 1.3125V3.9375C7.875 4.2856 7.73672 4.61944 7.49058 4.86558C7.24444 5.11172 6.9106 5.25 6.5625 5.25C6.2144 5.25 5.88056 5.11172 5.63442 4.86558C5.38828 4.61944 5.25 4.2856 5.25 3.9375ZM9.625 3.9375V1.3125C9.625 0.964403 9.76328 0.630564 10.0094 0.384422C10.2556 0.138281 10.5894 0 10.9375 0C11.2856 0 11.6194 0.138281 11.8656 0.384422C12.1117 0.630564 12.25 0.964403 12.25 1.3125V3.9375C12.25 4.2856 12.1117 4.61944 11.8656 4.86558C11.6194 5.11172 11.2856 5.25 10.9375 5.25C10.5894 5.25 10.2556 5.11172 10.0094 4.86558C9.76328 4.61944 9.625 4.2856 9.625 3.9375ZM14 3.9375V1.3125C14 0.964403 14.1383 0.630564 14.3844 0.384422C14.6306 0.138281 14.9644 0 15.3125 0C15.6606 0 15.9944 0.138281 16.2406 0.384422C16.4867 0.630564 16.625 0.964403 16.625 1.3125V3.9375C16.625 4.2856 16.4867 4.61944 16.2406 4.86558C15.9944 5.11172 15.6606 5.25 15.3125 5.25C14.9644 5.25 14.6306 5.11172 14.3844 4.86558C14.1383 4.61944 14 4.2856 14 3.9375Z" fill="#FF9A6C"/>
</svg>
