<svg width="25" height="25" viewBox="0 0 25 25" fill="none" xmlns="http://www.w3.org/2000/svg">
<path d="M12.0833 21.75C14.6471 21.75 17.1058 20.7316 18.9187 18.9187C20.7316 17.1058 21.75 14.6471 21.75 12.0833C21.75 9.51957 20.7316 7.06082 18.9187 5.24797C17.1058 3.43512 14.6471 2.41667 12.0833 2.41667C9.51957 2.41667 7.06082 3.43512 5.24797 5.24797C3.43512 7.06082 2.41667 9.51957 2.41667 12.0833C2.41667 14.6471 3.43512 17.1058 5.24797 18.9187C7.06082 20.7316 9.51957 21.75 12.0833 21.75ZM12.0833 0C13.6701 0 15.2414 0.312545 16.7074 0.919789C18.1734 1.52703 19.5055 2.41708 20.6275 3.53913C21.7496 4.66117 22.6396 5.99322 23.2469 7.45924C23.8541 8.92526 24.1667 10.4965 24.1667 12.0833C24.1667 15.288 22.8936 18.3615 20.6275 20.6275C18.3615 22.8936 15.288 24.1667 12.0833 24.1667C5.40125 24.1667 0 18.7292 0 12.0833C0 8.87863 1.27306 5.80519 3.53913 3.53913C5.80519 1.27306 8.87863 0 12.0833 0ZM12.6875 6.04167V12.3854L18.125 15.6117L17.2187 17.0979L10.875 13.2917V6.04167H12.6875Z" fill="#1D97CA"/>
</svg>
