<svg width="29" height="30" viewBox="0 0 29 30" fill="none" xmlns="http://www.w3.org/2000/svg">
<path d="M1.14999 1.15002V11.3662C1.14999 12.5275 1.61958 13.6411 2.45546 14.4622C3.29134 15.2833 4.42503 15.7446 5.60714 15.7446H7.09285M7.09285 15.7446H8.57857C9.76067 15.7446 10.8944 15.2833 11.7302 14.4622C12.5661 13.6411 13.0357 12.5275 13.0357 11.3662V1.15002M7.09285 15.7446V1.15002M7.09285 15.7446V28.15M27.15 28.15V18.6635M27.15 18.6635V1.93229C27.15 1.72482 27.0661 1.52585 26.9168 1.37915C26.7674 1.23244 26.5649 1.15002 26.3537 1.15002C24.5947 1.15002 22.9077 1.83643 21.664 3.05823C20.4202 4.28004 19.7214 5.93716 19.7214 7.66505V15.7446C19.7214 16.5188 20.0345 17.2612 20.5917 17.8086C21.149 18.356 21.9048 18.6635 22.6929 18.6635H27.15Z" stroke="#0B7E4A" stroke-width="2.3" stroke-linecap="round" stroke-linejoin="round"/>
</svg>
