<svg width="28" height="28" viewBox="0 0 28 28" fill="none" xmlns="http://www.w3.org/2000/svg">
<path d="M2.9165 14.0003C2.9165 8.77558 2.9165 6.16322 4.53962 4.54011C6.16274 2.91699 8.77511 2.91699 13.9998 2.91699C19.2245 2.91699 21.8369 2.91699 23.4601 4.54011C25.0832 6.16322 25.0832 8.77558 25.0832 14.0003C25.0832 19.2251 25.0832 21.8374 23.4601 23.4606C21.8369 25.0836 19.2245 25.0836 13.9998 25.0836C8.77511 25.0836 6.16274 25.0836 4.53962 23.4606C2.9165 21.8374 2.9165 19.2251 2.9165 14.0003Z" stroke="#4D4D4D" stroke-width="1.5"/>
<path d="M2.9165 10.5H25.0832" stroke="#4D4D4D" stroke-width="1.5" stroke-linejoin="round"/>
<path d="M8.1665 7H8.17848" stroke="#4D4D4D" stroke-width="1.5" stroke-linecap="round" stroke-linejoin="round"/>
<path d="M12.833 7H12.845" stroke="#4D4D4D" stroke-width="1.5" stroke-linecap="round" stroke-linejoin="round"/>
<path d="M19.8332 19.8333C19.8332 16.6117 17.2215 14 13.9998 14C10.7782 14 8.1665 16.6117 8.1665 19.8333" stroke="#4D4D4D" stroke-width="1.5" stroke-linecap="round"/>
<path d="M14.8247 17.8418L13.1748 19.4917" stroke="#4D4D4D" stroke-width="1.5" stroke-linecap="round" stroke-linejoin="round"/>
</svg>
