<svg width="24" height="26" viewBox="0 0 24 26" fill="none" xmlns="http://www.w3.org/2000/svg">
<path d="M18.2736 1V3.3333M11.9991 1V3.3333M5.72461 1V3.3333" stroke="#00A0E3" stroke-width="1.5" stroke-linecap="round" stroke-linejoin="round"/>
<path d="M1.33398 13.8325V9.16593C1.33398 5.86614 1.33398 4.21624 2.43664 3.19113C3.5393 2.16602 5.31399 2.16602 8.8634 2.16602H15.1379C18.6873 2.16602 20.462 2.16602 21.5646 3.19113C22.6673 4.21624 22.6673 5.86614 22.6673 9.16593V13.8325C22.6673 17.1323 22.6673 18.7822 21.5646 19.8073C20.462 20.8325 18.6873 20.8325 15.1379 20.8325H8.8634C5.31399 20.8325 3.5393 20.8325 2.43664 19.8073C1.33398 18.7822 1.33398 17.1323 1.33398 13.8325Z" stroke="#00A0E3" stroke-width="1.5"/>
<path d="M1.33398 17.3325V9.16593C1.33398 5.86614 1.33398 4.21624 2.43664 3.19113C3.5393 2.16602 5.31399 2.16602 8.8634 2.16602H15.1379C18.6873 2.16602 20.462 2.16602 21.5646 3.19113C22.6673 4.21624 22.6673 5.86614 22.6673 9.16593V17.3325C22.6673 20.6323 22.6673 22.2821 21.5646 23.3073C20.462 24.3324 18.6873 24.3324 15.1379 24.3324H8.8634C5.31399 24.3324 3.5393 24.3324 2.43664 23.3073C1.33398 22.2821 1.33398 20.6323 1.33398 17.3325Z" stroke="#00A0E3" stroke-width="1.5"/>
<path d="M6.98047 16.1672H12.0001M6.98047 10.334H17.0197" stroke="#00A0E3" stroke-width="1.5" stroke-linecap="round"/>
</svg>
