<svg width="19" height="22" viewBox="0 0 19 22" fill="none" xmlns="http://www.w3.org/2000/svg">
<path d="M18.4771 15.1896C18.3955 15.0914 18.3155 14.9932 18.2369 14.8984C17.1565 13.5916 16.5029 12.8029 16.5029 9.10364C16.5029 7.18843 16.0447 5.61697 15.1416 4.43838C14.4756 3.56769 13.5755 2.90719 12.389 2.41906C12.3737 2.41057 12.3601 2.39943 12.3487 2.38616C11.922 0.957114 10.7541 0 9.43704 0C8.11993 0 6.9526 0.957114 6.52585 2.38468C6.51446 2.39746 6.50101 2.40825 6.48607 2.4166C3.71729 3.5564 2.3717 5.74318 2.3717 9.10217C2.3717 12.8029 1.71904 13.5916 0.637655 14.8969C0.55908 14.9917 0.479032 15.0879 0.397511 15.1881C0.186931 15.4421 0.0535117 15.751 0.013042 16.0784C-0.0274277 16.4058 0.0267465 16.738 0.169153 17.0356C0.472157 17.674 1.11794 18.0703 1.85507 18.0703H17.0244C17.7581 18.0703 18.3995 17.6745 18.7034 17.039C18.8465 16.7413 18.9012 16.4089 18.861 16.0811C18.8209 15.7534 18.6877 15.444 18.4771 15.1896Z" fill="#00A0E3"/>
<path d="M9.43882 22.001C10.1485 22.0004 10.8447 21.8078 11.4538 21.4435C12.0628 21.0793 12.5619 20.557 12.8981 19.9321C12.9139 19.9021 12.9217 19.8686 12.9208 19.8347C12.9198 19.8008 12.9101 19.7678 12.8926 19.7388C12.8751 19.7098 12.8504 19.6858 12.8209 19.6691C12.7914 19.6525 12.7581 19.6438 12.7242 19.6438H6.1544C6.12048 19.6437 6.08711 19.6523 6.05753 19.669C6.02795 19.6856 6.00318 19.7095 5.98562 19.7386C5.96807 19.7676 5.95833 19.8007 5.95736 19.8346C5.95638 19.8685 5.96421 19.9021 5.98006 19.9321C6.31623 20.5569 6.81524 21.0792 7.42417 21.4434C8.0331 21.8076 8.72926 22.0003 9.43882 22.001Z" fill="#00A0E3"/>
</svg>
