<svg width="28" height="29" viewBox="0 0 28 29" fill="none" xmlns="http://www.w3.org/2000/svg">
<path d="M24.6194 5.05556L23.8585 4.29456C23.3511 3.78723 22.5286 3.78723 22.0212 4.29455L17.9282 8.38749C17.3842 8.93155 17.0134 9.62449 16.8625 10.379L16.4443 12.4696L18.5349 12.0515C19.2894 11.9006 19.9824 11.5297 20.5264 10.9857L24.6194 6.89275C25.1268 6.38542 25.1268 5.56288 24.6194 5.05556Z" stroke="#4D4D4D" stroke-width="1.5" stroke-linejoin="round"/>
<path d="M16.0658 24.0265C15.8333 23.465 15.8333 22.7532 15.8333 21.3294C15.8333 19.9057 15.8333 19.1938 16.0658 18.6323C16.3759 17.8836 16.9708 17.2888 17.7195 16.9787C18.281 16.7461 18.9928 16.7461 20.4166 16.7461C21.8404 16.7461 22.5522 16.7461 23.1137 16.9787C23.8624 17.2888 24.4573 17.8836 24.7673 18.6323C24.9999 19.1938 24.9999 19.9057 24.9999 21.3294C24.9999 22.7532 24.9999 23.465 24.7673 24.0265C24.4573 24.7752 23.8624 25.3701 23.1137 25.6802C22.5522 25.9128 21.8404 25.9128 20.4166 25.9128C18.9928 25.9128 18.281 25.9128 17.7195 25.6802C16.9708 25.3701 16.3759 24.7752 16.0658 24.0265Z" stroke="#4D4D4D" stroke-width="1.5" stroke-linecap="square" stroke-linejoin="round"/>
<path d="M3.23259 24.0265C3 23.465 3 22.7532 3 21.3294C3 19.9057 3 19.1938 3.23259 18.6323C3.54272 17.8836 4.13755 17.2888 4.88624 16.9787C5.44777 16.7461 6.15963 16.7461 7.58333 16.7461C9.00704 16.7461 9.7189 16.7461 10.2804 16.9787C11.0291 17.2888 11.624 17.8836 11.9341 18.6323C12.1667 19.1938 12.1667 19.9057 12.1667 21.3294C12.1667 22.7532 12.1667 23.465 11.9341 24.0265C11.624 24.7752 11.0291 25.3701 10.2804 25.6802C9.7189 25.9128 9.00704 25.9128 7.58333 25.9128C6.15963 25.9128 5.44777 25.9128 4.88624 25.6802C4.13755 25.3701 3.54272 24.7752 3.23259 24.0265Z" stroke="#4D4D4D" stroke-width="1.5" stroke-linecap="square" stroke-linejoin="round"/>
<path d="M3.23259 11.1945C3 10.633 3 9.9211 3 8.4974C3 7.07369 3 6.36183 3.23259 5.80031C3.54272 5.05161 4.13755 4.45678 4.88624 4.14665C5.44777 3.91406 6.15963 3.91406 7.58333 3.91406C9.00704 3.91406 9.7189 3.91406 10.2804 4.14665C11.0291 4.45678 11.624 5.05161 11.9341 5.80031C12.1667 6.36183 12.1667 7.07369 12.1667 8.4974C12.1667 9.9211 12.1667 10.633 11.9341 11.1945C11.624 11.9432 11.0291 12.5381 10.2804 12.8481C9.7189 13.0807 9.00704 13.0807 7.58333 13.0807C6.15963 13.0807 5.44777 13.0807 4.88624 12.8481C4.13755 12.5381 3.54272 11.9432 3.23259 11.1945Z" stroke="#4D4D4D" stroke-width="1.5" stroke-linecap="square" stroke-linejoin="round"/>
</svg>
