<svg width="59" height="37" viewBox="0 0 59 37" fill="none" xmlns="http://www.w3.org/2000/svg">
<path d="M2 18.5C2 10.7218 2 6.83274 4.41637 4.41637C6.83274 2 10.7218 2 18.5 2H32.25C40.0281 2 43.9171 2 46.3336 4.41637C48.75 6.83274 48.75 10.7218 48.75 18.5C48.75 26.2781 48.75 30.1671 46.3336 32.5836C43.9171 35 40.0281 35 32.25 35H18.5C10.7218 35 6.83274 35 4.41637 32.5836C2 30.1671 2 26.2781 2 18.5Z" stroke="#FD7F20" stroke-width="3.5" stroke-linecap="round"/>
<path d="M48.75 11.625L51.5748 12.0958C53.4484 12.4081 54.385 12.5642 55.0959 13.0184C55.795 13.465 56.3433 14.1121 56.6689 14.8752C57 15.651 57 16.6006 57 18.5C57 20.3994 57 21.349 56.6689 22.1248C56.3433 22.8879 55.795 23.535 55.0959 23.9816C54.385 24.4359 53.4484 24.5921 51.5748 24.9042L48.75 25.375" stroke="#FD7F20" stroke-width="3.5" stroke-linecap="round"/>
<path d="M13 13V24" stroke="#FD7F20" stroke-width="3.5" stroke-linecap="round"/>
<path d="M21.25 13V24" stroke="#FD7F20" stroke-width="3.5" stroke-linecap="round"/>
</svg>
