<svg width="52" height="33" viewBox="0 0 52 33" fill="none" xmlns="http://www.w3.org/2000/svg">
<path d="M30.8125 5.85449C30.8125 8.30524 28.2118 11.0316 26.375 11.0316C24.5382 11.0316 21.9375 8.30524 21.9375 5.85449C21.9375 3.40373 23.9242 1.41699 26.375 1.41699C28.8258 1.41699 30.8125 3.40373 30.8125 5.85449Z" stroke="#8A38F5" stroke-width="2.3"/>
<path d="M32.3529 11.7707C34.6057 13.7458 36.0655 17.0911 34.7547 20.2096C34.4721 20.8814 33.8241 21.317 33.1072 21.317C32.3781 21.317 31.1807 21.0835 30.948 22.0322L29.3251 28.6513C28.9867 30.0315 27.7703 30.9998 26.375 30.9998C24.9796 30.9998 23.7633 30.0315 23.4249 28.6513L21.8019 22.0322C21.5692 21.0835 20.3718 21.317 19.6427 21.317C18.9258 21.317 18.2778 20.8814 17.9953 20.2096C16.6845 17.0911 18.1443 13.7458 20.397 11.7707" stroke="#8A38F5" stroke-width="2.3" stroke-linecap="round"/>
<path d="M11 10C11 11.6568 9.2418 13.5 8 13.5C6.7582 13.5 5 11.6568 5 10C5 8.34315 6.3431 7 8 7C9.6569 7 11 8.34315 11 10Z" stroke="#8A38F5" stroke-width="2.3"/>
<path d="M12.0414 14C13.5644 15.3353 14.5513 17.5969 13.6651 19.7052C13.4741 20.1594 13.036 20.4539 12.5513 20.4539C12.0584 20.4539 11.2489 20.296 11.0916 20.9374L9.99444 25.4123C9.76564 26.3454 8.94334 27 8.00004 27C7.05664 27 6.23434 26.3454 6.00554 25.4123L4.90833 20.9374C4.75104 20.296 3.94149 20.4539 3.44862 20.4539C2.9639 20.4539 2.52582 20.1594 2.33488 19.7052C1.44867 17.5969 2.43558 15.3353 3.95857 14" stroke="#8A38F5" stroke-width="2.3" stroke-linecap="round"/>
<path d="M47.25 10C47.25 11.6568 45.4918 13.5 44.25 13.5C43.0082 13.5 41.25 11.6568 41.25 10C41.25 8.34315 42.5931 7 44.25 7C45.9069 7 47.25 8.34315 47.25 10Z" stroke="#8A38F5" stroke-width="2.3"/>
<path d="M48.2914 14C49.8144 15.3353 50.8013 17.5969 49.9151 19.7052C49.7241 20.1594 49.286 20.4539 48.8013 20.4539C48.3084 20.4539 47.4989 20.296 47.3416 20.9374L46.2444 25.4123C46.0156 26.3454 45.1933 27 44.25 27C43.3066 27 42.4843 26.3454 42.2555 25.4123L41.1583 20.9374C41.001 20.296 40.1915 20.4539 39.6986 20.4539C39.2139 20.4539 38.7758 20.1594 38.5849 19.7052C37.6987 17.5969 38.6856 15.3353 40.2086 14" stroke="#8A38F5" stroke-width="2.3" stroke-linecap="round"/>
</svg>
