<svg width="38" height="32" viewBox="0 0 38 32" fill="none" xmlns="http://www.w3.org/2000/svg">
<path d="M24.666 22.5107C26.2935 21.1865 28.2374 20.4171 30.3252 20.4171C32.4195 20.4171 34.369 21.1914 35.9997 22.5231M33.4132 26.0839C32.4837 25.5043 31.4349 25.1782 30.3252 25.1782C29.221 25.1782 28.1772 25.501 27.2512 26.0751" stroke="#B39DDB" stroke-width="2.5" stroke-linecap="round"/>
<path d="M30.3341 30.3341H30.3418" stroke="#B39DDB" stroke-width="2.5" stroke-linecap="round" stroke-linejoin="round"/>
<path d="M19.0005 30.3341V10.5002C19.0005 6.49318 19.0005 4.48966 17.7556 3.24483C16.5108 2 14.5073 2 10.5002 2C6.49318 2 4.48966 2 3.24483 3.24483C2 4.48966 2 6.49318 2 10.5002V21.8339C2 25.8409 2 27.8444 3.24483 29.0893C4.48966 30.3341 6.49318 30.3341 10.5002 30.3341H19.0005Z" stroke="#B39DDB" stroke-width="2.5" stroke-linecap="round"/>
<path d="M8.37362 14.7509H6.95691M14.0404 14.7509H12.6237M8.37362 9.08405H6.95691M8.37362 20.4177H6.95691M14.0404 9.08405H12.6237M14.0404 20.4177H12.6237" stroke="#B39DDB" stroke-width="2.5" stroke-linecap="round"/>
<path d="M25.3758 14.75H23.9591" stroke="#B39DDB" stroke-width="2.5" stroke-linecap="round"/>
<path d="M30.3337 16.1668C30.3337 13.4955 30.3337 12.1598 29.5037 11.3299C28.6738 10.5 27.3382 10.5 24.6668 10.5H19V30.3339H27.5002" stroke="#B39DDB" stroke-width="2.5" stroke-linecap="round"/>
</svg>
