<svg width="48" height="32" viewBox="0 0 48 32" fill="none" xmlns="http://www.w3.org/2000/svg">
<path d="M32.6246 20.3353C34.6349 18.6997 37.036 17.7493 39.6148 17.7493C42.2017 17.7493 44.6098 18.7058 46.624 20.3507M43.4291 24.749C42.281 24.0331 40.9856 23.6302 39.6148 23.6302C38.251 23.6302 36.9616 24.029 35.8179 24.7381" stroke="#B39DDB" stroke-width="2.5" stroke-linecap="round"/>
<path d="M39.6229 29.9982H39.6346" stroke="#B39DDB" stroke-width="2.5" stroke-linecap="round" stroke-linejoin="round"/>
<path d="M15.0215 6.11027L18.1953 10.5763C18.8419 11.4861 19.1653 11.941 19.3322 12.4646C19.4992 12.9883 19.4992 13.5472 19.4992 14.6654V29.9988H8.99966C5.69999 29.9988 4.05015 29.9988 3.02508 28.9684C2 27.9382 2 26.28 2 22.9636V14.6654C2 13.5472 2 12.9883 2.16696 12.4646C2.33392 11.941 2.65722 11.4861 3.30381 10.5763L6.47769 6.11027C8.42508 3.37009 9.39877 2 10.7496 2C12.1004 2 13.0741 3.37009 15.0215 6.11027Z" stroke="#B39DDB" stroke-width="2.5" stroke-linecap="round" stroke-linejoin="round"/>
<path d="M14.2516 29.9986V22.9989C14.2516 21.6905 14.2516 21.0363 13.9703 20.549C13.786 20.2298 13.5209 19.9647 13.2017 19.7804C12.7144 19.499 12.0602 19.499 10.7518 19.499C9.44339 19.499 8.78918 19.499 8.3019 19.7804C7.98268 19.9647 7.71759 20.2298 7.53329 20.549C7.25195 21.0363 7.25195 21.6905 7.25195 22.9989V29.9986" stroke="#B39DDB" stroke-width="2.5" stroke-linecap="round" stroke-linejoin="round"/>
<path d="M14.2498 29.9988H31.749M38.7487 15.0338C38.7487 13.7796 38.7487 13.1526 38.5395 12.5751C38.3306 11.9978 37.9292 11.5161 37.1263 10.5527L32.0979 4.5186C31.0658 3.2801 30.5498 2.66084 29.8444 2.33042C29.1388 2 28.3328 2 26.7206 2H10.75" stroke="#B39DDB" stroke-width="2.5" stroke-linecap="round" stroke-linejoin="round"/>
<path d="M37.8741 12.498H19.5" stroke="#B39DDB" stroke-width="2.5" stroke-linecap="round" stroke-linejoin="round"/>
</svg>
