<svg width="59" height="37" viewBox="0 0 59 37" fill="none" xmlns="http://www.w3.org/2000/svg">
<path d="M2 18.5C2 10.7218 2 6.83274 4.41634 4.41637C6.83268 2 10.7217 2 18.4998 2H32.2496C40.0276 2 43.9166 2 46.333 4.41637C48.7494 6.83274 48.7494 10.7218 48.7494 18.5C48.7494 26.2781 48.7494 30.1671 46.333 32.5836C43.9166 35 40.0276 35 32.2496 35H18.4998C10.7217 35 6.83268 35 4.41634 32.5836C2 30.1671 2 26.2781 2 18.5Z" stroke="#31ED31" stroke-width="3.5" stroke-linecap="round"/>
<path d="M48.7501 11.6247L51.5749 12.0955C53.4484 12.4077 54.3851 12.5638 55.0959 13.0181C55.795 13.4647 56.3433 14.1118 56.6689 14.8749C57 15.6507 57 16.6002 57 18.4997C57 20.3991 57 21.3487 56.6689 22.1244C56.3433 22.8876 55.795 23.5346 55.0959 23.9812C54.3851 24.4355 53.4484 24.5917 51.5749 24.9039L48.7501 25.3747" stroke="#31ED31" stroke-width="3.5" stroke-linecap="round"/>
<path d="M12.9992 13.0003V24.0003" stroke="#31ED31" stroke-width="3.5" stroke-linecap="round"/>
<path d="M21.2491 13.0003V24.0003" stroke="#31ED31" stroke-width="3.5" stroke-linecap="round"/>
<path d="M29.499 13.0003V24.0003" stroke="#31ED31" stroke-width="3.5" stroke-linecap="round"/>
</svg>
