<svg width="40" height="40" viewBox="0 0 40 40" fill="none" xmlns="http://www.w3.org/2000/svg">
<rect width="40" height="40" rx="20" fill="#DAF1FB"/>
<path d="M10.6114 29.3891C9.00049 27.7782 9.00049 25.1854 9.00049 20C9.00049 14.8146 9.00049 12.2218 10.6114 10.6109C12.2223 9 14.815 9 20.0005 9C25.1859 9 27.7787 9 29.3896 10.6109C31.0005 12.2218 31.0005 14.8146 31.0005 20C31.0005 25.1854 31.0005 27.7782 29.3896 29.3891C27.7787 31 25.1859 31 20.0005 31C14.815 31 12.2223 31 10.6114 29.3891Z" stroke="#00A0E3" stroke-width="1.5" stroke-linecap="round" stroke-linejoin="round"/>
<path d="M13.8892 22.4455L17.3027 19.032C17.78 18.5547 18.5539 18.5547 19.0312 19.032L20.9694 20.9702C21.4466 21.4475 22.2206 21.4475 22.6978 20.9702L26.1114 17.5566" stroke="#00A0E3" stroke-width="1.5" stroke-linecap="round" stroke-linejoin="round"/>
</svg>
