<svg width="21" height="21" viewBox="0 0 21 21" fill="none" xmlns="http://www.w3.org/2000/svg">
<path d="M13.5 13.5L15 15" stroke="#909090" stroke-width="1.5" stroke-linecap="round" stroke-linejoin="round"/>
<path d="M15.4333 17.5252C14.8556 16.9475 14.8556 16.0109 15.4333 15.4333C16.0109 14.8556 16.9475 14.8556 17.5252 15.4333L19.5667 17.4748C20.1444 18.0525 20.1444 18.9891 19.5667 19.5667C18.9891 20.1444 18.0525 20.1444 17.4748 19.5667L15.4333 17.5252Z" stroke="#909090" stroke-width="1.5" stroke-linecap="round" stroke-linejoin="round"/>
<path d="M15 8C15 4.13401 11.866 1 8 1C4.13401 1 1 4.13401 1 8C1 11.866 4.13401 15 8 15C11.866 15 15 11.866 15 8Z" stroke="#909090" stroke-width="1.5" stroke-linecap="round" stroke-linejoin="round"/>
</svg>
