<svg width="36" height="36" viewBox="0 0 36 36" fill="none" xmlns="http://www.w3.org/2000/svg">
<path d="M34.0005 5.36842C34.0005 7.22875 32.4925 8.73684 30.6321 8.73684C28.7717 8.73684 27.2637 7.22875 27.2637 5.36842C27.2637 3.50809 28.7717 2 30.6321 2C32.4925 2 34.0005 3.50809 34.0005 5.36842Z" stroke="#00A0E3" stroke-width="2.5"/>
<path d="M32.2671 13.6311C32.3158 15.1205 32.3158 16.8415 32.3158 18.8425C32.3158 25.9879 32.3158 29.5608 30.096 31.7806C27.8762 34.0004 24.3033 34.0004 17.1579 34.0004C10.0124 34.0004 6.43965 34.0004 4.21982 31.7806C2 29.5608 2 25.9879 2 18.8425C2 11.697 2 8.12422 4.21982 5.90439C6.43965 3.68457 10.0124 3.68457 17.1579 3.68457C19.1589 3.68457 20.8798 3.68457 22.3692 3.73333" stroke="#00A0E3" stroke-width="2.5" stroke-linecap="round" stroke-linejoin="round"/>
<path d="M8.73633 22.2105L13.4401 17.5066C14.0979 16.849 15.1643 16.849 15.822 17.5066L18.4928 20.1775C19.1505 20.8351 20.2169 20.8351 20.8746 20.1775L25.5784 15.4736" stroke="#00A0E3" stroke-width="2.5" stroke-linecap="round" stroke-linejoin="round"/>
</svg>
