<svg width="61" height="49" viewBox="0 0 61 49" fill="none" xmlns="http://www.w3.org/2000/svg">
<path d="M16.9961 46.9992C16.9961 44.1026 17.9817 41.1724 20.3889 39.561C23.2757 37.6282 26.7533 36.5 30.4961 36.5C34.2389 36.5 37.7166 37.6282 40.6035 39.561C43.0107 41.1724 43.9962 44.1026 43.9962 46.9992" stroke="#FFC107" stroke-width="3.5" stroke-linecap="round" stroke-linejoin="round"/>
<path d="M30.4981 28.9988C34.6402 28.9988 37.9981 25.6412 37.9981 21.4994C37.9981 17.3576 34.6402 14 30.4981 14C26.3559 14 22.998 17.3576 22.998 21.4994C22.998 25.6412 26.3559 28.9988 30.4981 28.9988Z" stroke="#FFC107" stroke-width="3.5" stroke-linecap="round" stroke-linejoin="round"/>
<path d="M47 21.4941C50.3303 21.4941 53.4245 22.6247 55.9922 24.5611C58.1687 26.2026 59 28.9788 59 31.7047V31.9933" stroke="#FFC107" stroke-width="3.5" stroke-linecap="round" stroke-linejoin="round"/>
<path d="M46.9981 13.999C50.3118 13.999 52.9981 11.313 52.9981 7.99952C52.9981 4.68607 50.3118 2 46.9981 2C43.6843 2 40.998 4.68607 40.998 7.99952C40.998 11.313 43.6843 13.999 46.9981 13.999Z" stroke="#FFC107" stroke-width="3.5" stroke-linecap="round" stroke-linejoin="round"/>
<path d="M14 21.4941C10.6696 21.4941 7.5754 22.6247 5.00769 24.5611C2.83118 26.2026 2 28.9788 2 31.7047V31.9933" stroke="#FFC107" stroke-width="3.5" stroke-linecap="round" stroke-linejoin="round"/>
<path d="M14.002 13.999C17.3157 13.999 20.002 11.313 20.002 7.99952C20.002 4.68607 17.3157 2 14.002 2C10.6883 2 8.00195 4.68607 8.00195 7.99952C8.00195 11.313 10.6883 13.999 14.002 13.999Z" stroke="#FFC107" stroke-width="3.5" stroke-linecap="round" stroke-linejoin="round"/>
</svg>
