<svg width="40" height="40" viewBox="0 0 40 40" fill="none" xmlns="http://www.w3.org/2000/svg">
<circle cx="20" cy="20" r="20" fill="#E9F8FF"/>
<path d="M13.7754 30.6669C13.7754 29.2937 14.2426 27.9045 15.3838 27.1406C16.7524 26.2243 18.4011 25.6895 20.1755 25.6895C21.9499 25.6895 23.5985 26.2243 24.9671 27.1406C26.1083 27.9045 26.5756 29.2937 26.5756 30.6669" stroke="#00A0E3" stroke-width="1.5" stroke-linecap="round" stroke-linejoin="round"/>
<path d="M20.1786 22.134C22.1424 22.134 23.7342 20.5423 23.7342 18.5787C23.7342 16.6152 22.1424 15.0234 20.1786 15.0234C18.2149 15.0234 16.623 16.6152 16.623 18.5787C16.623 20.5423 18.2149 22.134 20.1786 22.134Z" stroke="#00A0E3" stroke-width="1.5" stroke-linecap="round" stroke-linejoin="round"/>
<path d="M28 18.5762C29.5788 18.5762 31.0457 19.1122 32.263 20.0301C33.2949 20.8083 33.689 22.1245 33.689 23.4168V23.5536" stroke="#00A0E3" stroke-width="1.5" stroke-linecap="round" stroke-linejoin="round"/>
<path d="M27.9988 15.0225C29.5697 15.0225 30.8433 13.7491 30.8433 12.1782C30.8433 10.6074 29.5697 9.33398 27.9988 9.33398C26.4278 9.33398 25.1543 10.6074 25.1543 12.1782C25.1543 13.7491 26.4278 15.0225 27.9988 15.0225Z" stroke="#00A0E3" stroke-width="1.5" stroke-linecap="round" stroke-linejoin="round"/>
<path d="M12.355 18.5762C10.7761 18.5762 9.30919 19.1122 8.0919 20.0301C7.06006 20.8083 6.66602 22.1245 6.66602 23.4168V23.5536" stroke="#00A0E3" stroke-width="1.5" stroke-linecap="round" stroke-linejoin="round"/>
<path d="M12.3582 15.0225C13.9291 15.0225 15.2026 13.7491 15.2026 12.1782C15.2026 10.6074 13.9291 9.33398 12.3582 9.33398C10.7872 9.33398 9.51367 10.6074 9.51367 12.1782C9.51367 13.7491 10.7872 15.0225 12.3582 15.0225Z" stroke="#00A0E3" stroke-width="1.5" stroke-linecap="round" stroke-linejoin="round"/>
</svg>
