<svg width="60" height="37" viewBox="0 0 60 37" fill="none" xmlns="http://www.w3.org/2000/svg">
<path d="M2.33398 18.5C2.33398 10.7218 2.33398 6.83274 4.75035 4.41637C7.16672 2 11.0558 2 18.834 2H32.584C40.3621 2 44.2511 2 46.6676 4.41637C49.084 6.83274 49.084 10.7218 49.084 18.5C49.084 26.2781 49.084 30.1671 46.6676 32.5836C44.2511 35 40.3621 35 32.584 35H18.834C11.0558 35 7.16672 35 4.75035 32.5836C2.33398 30.1671 2.33398 26.2781 2.33398 18.5Z" stroke="#31ED31" stroke-width="3.5" stroke-linecap="round"/>
<path d="M26.6109 10.25L21.819 16.231C21.3055 16.8717 21.6736 17.7941 22.511 17.9646L27.5307 18.9876C28.4234 19.1694 28.7638 20.1904 28.1399 20.8136L22.1943 26.75" stroke="#31ED31" stroke-width="3.5" stroke-linecap="round" stroke-linejoin="round"/>
<path d="M49.0826 11.6247L51.9074 12.0955C53.781 12.4077 54.7177 12.5638 55.4285 13.0181C56.1276 13.4647 56.6759 14.1118 57.0015 14.8749C57.3326 15.6507 57.3326 16.6002 57.3326 18.4997C57.3326 20.3991 57.3326 21.3487 57.0015 22.1244C56.6759 22.8876 56.1276 23.5346 55.4285 23.9812C54.7177 24.4355 53.781 24.5917 51.9074 24.9039L49.0826 25.3747" stroke="#31ED31" stroke-width="3.5" stroke-linecap="round"/>
</svg>
