<svg width="43" height="43" viewBox="0 0 43 43" fill="none" xmlns="http://www.w3.org/2000/svg">
<path d="M21.5 41.5C25.4556 41.5 29.3224 40.327 32.6114 38.1294C35.9004 35.9318 38.4638 32.8082 39.9776 29.1537C41.4913 25.4991 41.8874 21.4778 41.1157 17.5982C40.344 13.7186 38.4392 10.1549 35.6421 7.35787C32.8451 4.56082 29.2814 2.65601 25.4018 1.8843C21.5222 1.1126 17.5008 1.50867 13.8463 3.02242C10.1918 4.53617 7.06823 7.09962 4.87061 10.3886C2.67298 13.6776 1.5 17.5444 1.5 21.5C1.5 24.7 2.25111 27.7222 3.58889 30.4044C4.59555 32.4289 3.19556 35.16 2.66222 37.1533C2.54407 37.5942 2.54405 38.0584 2.66216 38.4993C2.78028 38.9401 3.01237 39.3421 3.33511 39.6649C3.65785 39.9876 4.05986 40.2197 4.50073 40.3378C4.94161 40.456 5.4058 40.4559 5.84667 40.3378C7.84 39.8044 10.5711 38.4044 12.5956 39.4133C15.3627 40.7873 18.4105 41.5015 21.5 41.5Z" stroke="white" stroke-width="3" stroke-linecap="round" stroke-linejoin="round"/>
</svg>
