<svg width="22" height="21" viewBox="0 0 22 21" fill="none" xmlns="http://www.w3.org/2000/svg">
<path d="M0.75 3.25L7.67435 7.17462C10.2042 8.6085 11.3286 8.6085 13.8585 7.17462L20.7828 3.25" stroke="#4D4D4D" stroke-width="1.5" stroke-linejoin="round"/>
<path d="M9.26393 17.75C8.79687 17.7439 8.32923 17.735 7.86047 17.7232C4.70681 17.6441 3.12998 17.6045 1.997 16.4684C0.864017 15.3323 0.831273 13.7987 0.765796 10.7314C0.744741 9.7451 0.744731 8.7647 0.765786 7.77843C0.831273 4.71113 0.864007 3.17748 1.99699 2.04139C3.12998 0.9053 4.70681 0.86573 7.86046 0.78658C9.80412 0.7378 11.7287 0.73781 13.6724 0.78659C16.826 0.86574 18.4028 0.90532 19.5357 2.04141C20.6688 3.17749 20.7016 4.71114 20.767 7.77844C20.7767 8.23251 20.7819 8.4465 20.7827 8.75" stroke="#4D4D4D" stroke-width="1.5" stroke-linecap="round" stroke-linejoin="round"/>
<path d="M17.7773 15.25C17.7773 16.0784 17.1046 16.75 16.2748 16.75C15.4451 16.75 14.7724 16.0784 14.7724 15.25C14.7724 14.4216 15.4451 13.75 16.2748 13.75C17.1046 13.75 17.7773 14.4216 17.7773 15.25ZM17.7773 15.25V15.75C17.7773 16.5784 18.45 17.25 19.2798 17.25C20.1095 17.25 20.7822 16.5784 20.7822 15.75V15.25C20.7822 12.7647 18.7642 10.75 16.2748 10.75C13.7855 10.75 11.7675 12.7647 11.7675 15.25C11.7675 17.7353 13.7855 19.75 16.2748 19.75" stroke="#4D4D4D" stroke-width="1.5" stroke-linecap="round" stroke-linejoin="round"/>
</svg>
