<svg width="20" height="20" viewBox="0 0 20 20" fill="none" xmlns="http://www.w3.org/2000/svg">
<path d="M6.90813 3.46232L6.50548 2.55634C6.2422 1.96397 6.11056 1.66777 5.91369 1.4411C5.66696 1.15703 5.34535 0.948032 4.98556 0.837942C4.69847 0.750092 4.37434 0.750092 3.72609 0.750092C2.77779 0.750092 2.30364 0.750092 1.90561 0.932382C1.43675 1.14711 1.01332 1.61337 0.844605 2.10069C0.701385 2.51438 0.742415 2.93952 0.824455 3.78979C1.69779 12.8403 6.6597 17.8022 15.7101 18.6755C16.5604 18.7576 16.9856 18.7986 17.3992 18.6554C17.8866 18.4867 18.3528 18.0632 18.5676 17.5944C18.7498 17.1963 18.7498 16.7222 18.7498 15.7739C18.7498 15.1256 18.7498 14.8015 18.662 14.5144C18.5519 14.1546 18.3429 13.833 18.0588 13.5863C17.8322 13.3894 17.536 13.2578 16.9436 12.9945L16.0376 12.5918C15.3961 12.3067 15.0753 12.1642 14.7494 12.1332C14.4374 12.1035 14.1229 12.1473 13.8309 12.261C13.5258 12.3798 13.2562 12.6045 12.7168 13.0539C12.18 13.5013 11.9116 13.725 11.5836 13.8448C11.2928 13.951 10.9084 13.9904 10.6022 13.9452C10.2567 13.8943 9.99223 13.753 9.46313 13.4702C7.81713 12.5906 6.90941 11.6829 6.02975 10.0368C5.74702 9.50779 5.60566 9.24319 5.55475 8.89779C5.50962 8.59149 5.54896 8.20709 5.65518 7.91639C5.775 7.58837 5.99869 7.31995 6.44607 6.78309C6.8955 6.24377 7.12022 5.97411 7.23903 5.669C7.35273 5.37703 7.3965 5.06249 7.36683 4.75057C7.33582 4.42461 7.19325 4.10385 6.90813 3.46232Z" stroke="#4D4D4D" stroke-width="1.5" stroke-linecap="round"/>
</svg>
