<svg width="21" height="21" viewBox="0 0 21 21" fill="none" xmlns="http://www.w3.org/2000/svg">
<path d="M13.268 13.25L14.7702 14.75" stroke="#909090" stroke-width="1.5" stroke-linecap="round" stroke-linejoin="round"/>
<path d="M15.204 17.2752C14.6255 16.6975 14.6255 15.7609 15.204 15.1833C15.7825 14.6056 16.7204 14.6056 17.299 15.1833L19.3434 17.2248C19.9219 17.8025 19.9219 18.7391 19.3434 19.3167C18.765 19.8944 17.827 19.8944 17.2485 19.3167L15.204 17.2752Z" stroke="#909090" stroke-width="1.5" stroke-linecap="round" stroke-linejoin="round"/>
<path d="M14.7702 7.75C14.7702 3.88401 11.6316 0.75 7.76008 0.75C3.88852 0.75 0.75 3.88401 0.75 7.75C0.75 11.616 3.88852 14.75 7.76008 14.75C11.6316 14.75 14.7702 11.616 14.7702 7.75Z" stroke="#909090" stroke-width="1.5" stroke-linecap="round" stroke-linejoin="round"/>
</svg>
