<svg width="25" height="28" viewBox="0 0 25 28" fill="none" xmlns="http://www.w3.org/2000/svg">
<path d="M16.7812 21.9113C16.7812 24.3903 14.7716 26.4 12.2925 26.4C9.81342 26.4 7.80374 24.3903 7.80374 21.9113" stroke="#4D4D4D" stroke-width="1.5" stroke-linecap="round" stroke-linejoin="round"/>
<path d="M21.27 12.9338V14.5443C21.27 15.5647 21.6754 16.5433 22.3969 17.2649L23.1705 18.0385C23.5959 18.464 23.835 19.041 23.835 19.6426C23.835 20.8955 22.8193 21.9113 21.5664 21.9113H3.01858C1.76568 21.9113 0.75 20.8955 0.75 19.6426C0.75 19.041 0.989007 18.464 1.41445 18.0385L2.18809 17.2649C2.90964 16.5433 3.315 15.5647 3.315 14.5443V11.01C3.315 6.05187 7.33437 2.0325 12.2925 2.0325" stroke="#4D4D4D" stroke-width="1.5" stroke-linecap="round" stroke-linejoin="round"/>
<path d="M23.835 5.23875C23.835 2.75968 21.8253 0.75 19.3463 0.75C16.8672 0.75 14.8575 2.75968 14.8575 5.23875C14.8575 7.71782 16.8672 9.7275 19.3463 9.7275C21.8253 9.7275 23.835 7.71782 23.835 5.23875Z" stroke="#4D4D4D" stroke-width="1.5" stroke-linecap="round" stroke-linejoin="round"/>
</svg>
