<svg width="55" height="55" viewBox="0 0 55 55" fill="none" xmlns="http://www.w3.org/2000/svg">
<circle cx="27.5" cy="27.5" r="27.5" fill="#FFC107"/>
<path d="M33.4031 24.803L36.4839 25.7272C38.4521 26.3177 39.4363 26.613 40.003 27.3747C40.5697 28.1363 40.5697 29.1639 40.5697 31.2187V42.003" stroke="white" stroke-width="1.5" stroke-linejoin="round"/>
<path d="M21.9332 23.3679H26.2332M21.9332 29.1013H26.2332" stroke="white" stroke-width="1.5" stroke-linecap="round" stroke-linejoin="round"/>
<path d="M27.6698 41.9997V37.6997C27.6698 36.3483 27.6698 35.6727 27.25 35.2528C26.8302 34.833 26.1545 34.833 24.8032 34.833H23.3698C22.0185 34.833 21.3428 34.833 20.923 35.2528C20.5032 35.6727 20.5032 36.3483 20.5032 37.6997V41.9997" stroke="white" stroke-width="1.5" stroke-linejoin="round"/>
<path d="M13.3333 42.0029H41.9999" stroke="white" stroke-width="1.5" stroke-linecap="round"/>
<path d="M14.7682 41.9997V20.0944C14.7682 16.4956 14.7682 14.6963 15.9022 13.8035C17.0363 12.9107 18.7062 13.3954 22.046 14.3649L29.2126 16.4451C31.228 17.0301 32.2358 17.3226 32.8186 18.1198C33.4015 18.9171 33.4015 20.0029 33.4015 22.1746V41.9997" stroke="white" stroke-width="1.5" stroke-linecap="round" stroke-linejoin="round"/>
</svg>
