<svg width="14" height="8" viewBox="0 0 14 8" fill="none" xmlns="http://www.w3.org/2000/svg">
<path d="M0.292534 0.304829C0.4799 0.11764 0.733989 0.0124834 0.998925 0.0124834C1.26386 0.0124834 1.51795 0.11764 1.70532 0.304829L6.99375 5.58985L12.2822 0.304829C12.3744 0.209463 12.4846 0.133395 12.6065 0.0810645C12.7284 0.0287345 12.8595 0.00118978 12.9922 3.76988e-05C13.1248 -0.00111438 13.2564 0.0241499 13.3792 0.074355C13.502 0.12456 13.6135 0.198701 13.7074 0.292453C13.8012 0.386204 13.8754 0.497687 13.9256 0.620398C13.9758 0.743109 14.0011 0.87459 14 1.00717C13.9988 1.13975 13.9712 1.27077 13.9189 1.39259C13.8665 1.51441 13.7904 1.62459 13.695 1.7167L7.70014 7.70765C7.51278 7.89484 7.25869 8 6.99375 8C6.72882 8 6.47473 7.89484 6.28736 7.70765L0.292534 1.7167C0.105225 1.52945 0 1.27553 0 1.01076C0 0.745999 0.105225 0.492074 0.292534 0.304829Z" fill="#4D4D4D"/>
</svg>
