<svg width="23" height="24" viewBox="0 0 23 24" fill="none" xmlns="http://www.w3.org/2000/svg">
<path d="M19.3613 5.91016C20.4676 7.74262 20.9403 9.88694 20.7068 12.0136V13.2343C20.7054 14.5195 21.0428 15.7824 21.6853 16.8963" stroke="#00A0E3" stroke-width="2" stroke-linecap="round" stroke-linejoin="round"/>
<path d="M6.0293 10.789C6.0293 9.494 6.54476 8.25206 7.4623 7.33637C8.37984 6.42068 9.62429 5.90625 10.9219 5.90625C12.2195 5.90625 13.4639 6.42068 14.3815 7.33637C15.299 8.25206 15.8145 9.494 15.8145 10.789V12.0097C15.8145 14.6509 16.6729 17.2208 18.2608 19.3338" stroke="#00A0E3" stroke-width="2" stroke-linecap="round" stroke-linejoin="round"/>
<path d="M10.9199 10.793V13.2343C10.916 16.7248 11.9832 20.1327 13.9778 22.9998" stroke="#00A0E3" stroke-width="2" stroke-linecap="round" stroke-linejoin="round"/>
<path d="M6.0293 15.6758C6.3286 18.2268 7.07378 20.7057 8.23096 22.9999" stroke="#00A0E3" stroke-width="2" stroke-linecap="round" stroke-linejoin="round"/>
<path d="M2.23678 20.5576C1.41146 17.787 1.03973 14.9016 1.13595 12.0128V10.7921C1.13126 9.07564 1.57998 7.38827 2.43689 5.90003C3.29381 4.41178 4.52864 3.17523 6.01697 2.31498C7.50529 1.45473 9.19453 1.00117 10.9144 1C12.6344 0.998838 14.3242 1.45011 15.8137 2.30834" stroke="#00A0E3" stroke-width="2" stroke-linecap="round" stroke-linejoin="round"/>
</svg>
