<svg width="30" height="30" viewBox="0 0 30 30" fill="none" xmlns="http://www.w3.org/2000/svg">
<path d="M11.3164 18.0739H16.2287M11.3164 11.9336H21.141" stroke="#00A0E3" stroke-width="1.5" stroke-linecap="round"/>
<path d="M5.17578 12.5472C5.17578 7.91587 5.17578 5.60021 6.61455 4.16143C8.05333 2.72266 10.369 2.72266 15.0003 2.72266H16.8424C21.4737 2.72266 23.7895 2.72266 25.2282 4.16143C26.667 5.60021 26.667 7.91587 26.667 12.5472V17.4595C26.667 22.0908 26.667 24.4066 25.2282 25.8452C23.7895 27.2841 21.4737 27.2841 16.8424 27.2841H15.0003C10.369 27.2841 8.05333 27.2841 6.61455 25.8452C5.17578 24.4066 5.17578 22.0908 5.17578 17.4595V12.5472Z" stroke="#00A0E3" stroke-width="1.5"/>
<path d="M6.40416 7.63281H3.33398M6.40416 15.0012H3.33398M6.40416 22.3697H3.33398" stroke="#00A0E3" stroke-width="1.5" stroke-linecap="round" stroke-linejoin="round"/>
</svg>
