<svg width="20" height="20" viewBox="0 0 20 20" fill="none" xmlns="http://www.w3.org/2000/svg">
<path d="M11.0215 12.1576C12.7427 12.8954 13.6033 13.2643 14.471 13.1486C14.5689 13.1354 14.6662 13.1178 14.7625 13.0957C15.6156 12.8997 16.2922 12.2523 17.6453 10.9575L17.8042 10.8055C18.8301 9.77931 19.3432 9.26617 19.4678 8.21881C19.5924 7.17145 19.3249 6.73381 18.7901 5.85851C18.315 5.08086 17.6515 4.19431 16.728 3.27061C15.8045 2.3469 14.918 1.68329 14.1405 1.20802C13.2654 0.673086 12.8279 0.40562 11.7808 0.530218C10.7336 0.654826 10.2206 1.16795 9.19462 2.1942L9.04268 2.35295C7.74821 3.70643 7.10093 4.38317 6.90497 5.23658C6.88289 5.3328 6.86529 5.42998 6.85224 5.52783C6.73648 6.39578 7.10532 7.25659 7.84304 8.97822" stroke="#4D4D4D" stroke-linecap="round" stroke-linejoin="round"/>
<path d="M8.56063 8.41266L0.5 16.4753V19.4985H3.52274V17.483H5.5379V15.4675H7.55306L11.5834 11.4366" stroke="#4D4D4D" stroke-linecap="round" stroke-linejoin="round"/>
<path d="M14.7563 5.25006L13.1729 6.83375" stroke="#4D4D4D" stroke-linecap="round" stroke-linejoin="round"/>
</svg>
