<svg width="20" height="18" viewBox="0 0 20 18" fill="none" xmlns="http://www.w3.org/2000/svg">
<path d="M0.5 2.875L7.06736 6.59612C9.48851 7.96794 10.5115 7.96794 12.9326 6.59612L19.5 2.875" stroke="#4D4D4D" stroke-linejoin="round"/>
<path d="M0.514981 9.97681C0.577083 12.8891 0.608138 14.3452 1.68271 15.4239C2.75727 16.5025 4.25281 16.5401 7.24388 16.6152C9.08732 16.6616 10.9127 16.6616 12.7561 16.6152C15.7472 16.5401 17.2427 16.5025 18.3173 15.4239C19.3919 14.3452 19.4229 12.8891 19.485 9.97681C19.505 9.0404 19.505 8.10959 19.485 7.17317C19.4229 4.26091 19.3919 2.80478 18.3173 1.72613C17.2427 0.647469 15.7472 0.609897 12.7561 0.534743C10.9127 0.488421 9.08732 0.488421 7.24387 0.534733C4.25281 0.609878 2.75727 0.64745 1.6827 1.72612C0.608129 2.80477 0.577083 4.2609 0.514972 7.17317C0.495003 8.10959 0.495013 9.0404 0.514981 9.97681Z" stroke="#4D4D4D" stroke-linejoin="round"/>
</svg>
