<svg width="43" height="43" viewBox="0 0 43 43" fill="none" xmlns="http://www.w3.org/2000/svg">
<path d="M21.3333 0C17.114 0 12.9894 1.25118 9.48118 3.59531C5.97293 5.93945 3.23858 9.27126 1.62391 13.1694C0.00924333 17.0676 -0.413228 21.357 0.409924 25.4953C1.23307 29.6335 3.26488 33.4348 6.2484 36.4183C9.23192 39.4018 13.0332 41.4336 17.1714 42.2568C21.3097 43.0799 25.5991 42.6574 29.4973 41.0428C33.3954 39.4281 36.7272 36.6937 39.0714 33.1855C41.4155 29.6772 42.6667 25.5527 42.6667 21.3333C42.6667 15.6754 40.4191 10.2492 36.4183 6.24839C32.4175 2.24761 26.9913 0 21.3333 0ZM21.3333 40C17.6414 40 14.0324 38.9052 10.9627 36.8541C7.89298 34.803 5.50043 31.8876 4.08759 28.4768C2.67476 25.0659 2.30509 21.3126 3.02535 17.6916C3.74561 14.0707 5.52344 10.7446 8.13402 8.13401C10.7446 5.52343 14.0707 3.7456 17.6917 3.02534C21.3126 2.30508 25.0659 2.67475 28.4768 4.08758C31.8877 5.50042 34.803 7.89297 36.8541 10.9627C38.9052 14.0324 40 17.6414 40 21.3333C40 26.284 38.0333 31.032 34.5327 34.5327C31.032 38.0333 26.284 40 21.3333 40Z" fill="white"/>
<path d="M13.1005 31H14.1505V17.3158H13.1005C12.5435 17.3158 12.0094 17.5376 11.6156 17.9324C11.2217 18.3272 11.0005 18.8627 11.0005 19.4211V28.8947C11.0005 29.4531 11.2217 29.9886 11.6156 30.3834C12.0094 30.7782 12.5435 31 13.1005 31ZM29.9005 17.3158H22.5505L23.7286 13.7705C23.8337 13.4541 23.8623 13.1172 23.8121 12.7875C23.7619 12.4579 23.6343 12.1449 23.4398 11.8743C23.2453 11.6038 22.9895 11.3834 22.6934 11.2314C22.3973 11.0794 22.0694 11.0001 21.7367 11H21.5005L16.2505 16.7242V31H27.8005L31.9081 21.9516L32.0005 21.5263V19.4211C32.0005 18.8627 31.7792 18.3272 31.3854 17.9324C30.9916 17.5376 30.4574 17.3158 29.9005 17.3158Z" fill="#03C96F"/>
</svg>
