<svg width="25" height="25" viewBox="0 0 25 25" fill="none" xmlns="http://www.w3.org/2000/svg">
<path d="M23.4165 3.13596C23.4165 4.4537 22.3483 5.52193 21.0305 5.52193C19.7127 5.52193 18.6445 4.4537 18.6445 3.13596C18.6445 1.81823 19.7127 0.75 21.0305 0.75C22.3483 0.75 23.4165 1.81823 23.4165 3.13596Z" stroke="#00A0E3" stroke-width="1.5"/>
<path d="M22.1892 8.98298C22.2237 10.038 22.2237 11.257 22.2237 12.6743C22.2237 17.7357 22.2237 20.2665 20.6513 21.8388C19.079 23.4112 16.5482 23.4112 11.4868 23.4112C6.42545 23.4112 3.89475 23.4112 2.32237 21.8388C0.75 20.2665 0.75 17.7357 0.75 12.6743C0.75 7.61295 0.75 5.08225 2.32237 3.50987C3.89475 1.9375 6.42545 1.9375 11.4868 1.9375C12.9042 1.9375 14.1232 1.9375 15.1782 1.97204" stroke="#00A0E3" stroke-width="1.5" stroke-linecap="round" stroke-linejoin="round"/>
<path d="M4.32812 12.6782H7.31058L9.69655 7.90625L13.2755 17.4501L15.6615 12.6782H18.6439" stroke="#00A0E3" stroke-width="1.5" stroke-linecap="round" stroke-linejoin="round"/>
</svg>
