<svg width="22" height="12" viewBox="0 0 22 12" fill="none" xmlns="http://www.w3.org/2000/svg">
<path d="M0 12C0 9.75 3 9.75 4.5 8.25C5.25 7.5 3 7.5 3 3.75C3 1.25025 3.99975 0 6 0C8.00025 0 9 1.25025 9 3.75C9 7.5 6.75 7.5 7.5 8.25C9 9.75 12 9.75 12 12M11.7918 9.72667C12.2841 9.54827 12.6875 9.3833 13.0021 9.23177C13.5528 8.96655 14.0841 8.66594 14.5 8.25C15.25 7.5 13 7.5 13 3.75C13 1.25025 13.9998 0 16 0C18.0002 0 19 1.25025 19 3.75C19 7.5 16.75 7.5 17.5 8.25C19 9.75 22 9.75 22 12" fill="#FD7F20"/>
</svg>
