<svg width="97" height="97" viewBox="0 0 97 97" fill="none" xmlns="http://www.w3.org/2000/svg">
<path d="M87.9062 97H9.09375C4.06187 97 0 92.9381 0 87.9062V15.1562C0 10.1244 4.06187 6.0625 9.09375 6.0625H87.9062C92.9381 6.0625 97 10.1244 97 15.1562V87.9062C97 92.9381 92.9381 97 87.9062 97ZM9.09375 12.125C7.39625 12.125 6.0625 13.4587 6.0625 15.1562V87.9062C6.0625 89.6038 7.39625 90.9375 9.09375 90.9375H87.9062C89.6038 90.9375 90.9375 89.6038 90.9375 87.9062V15.1562C90.9375 13.4587 89.6038 12.125 87.9062 12.125H9.09375Z" fill="#D5D5D5"/>
<path d="M27.2812 24.25C25.5837 24.25 24.25 22.9163 24.25 21.2188V3.03125C24.25 1.33375 25.5837 0 27.2812 0C28.9788 0 30.3125 1.33375 30.3125 3.03125V21.2188C30.3125 22.9163 28.9788 24.25 27.2812 24.25ZM69.7188 24.25C68.0212 24.25 66.6875 22.9163 66.6875 21.2188V3.03125C66.6875 1.33375 68.0212 0 69.7188 0C71.4163 0 72.75 1.33375 72.75 3.03125V21.2188C72.75 22.9163 71.4163 24.25 69.7188 24.25ZM93.9688 36.375H3.03125C1.33375 36.375 0 35.0412 0 33.3438C0 31.6462 1.33375 30.3125 3.03125 30.3125H93.9688C95.6663 30.3125 97 31.6462 97 33.3438C97 35.0412 95.6663 36.375 93.9688 36.375Z" fill="#D5D5D5"/>
</svg>
