<svg width="22" height="22" viewBox="0 0 22 22" fill="none" xmlns="http://www.w3.org/2000/svg">
<g clip-path="url(#clip0_103_34)">
<path d="M2.75 1.375C2.38533 1.375 2.03559 1.51987 1.77773 1.77773C1.51987 2.03559 1.375 2.38533 1.375 2.75V19.25C1.375 19.6147 1.51987 19.9644 1.77773 20.2223C2.03559 20.4801 2.38533 20.625 2.75 20.625H19.25C19.6147 20.625 19.9644 20.4801 20.2223 20.2223C20.4801 19.9644 20.625 19.6147 20.625 19.25V2.75C20.625 2.38533 20.4801 2.03559 20.2223 1.77773C19.9644 1.51987 19.6147 1.375 19.25 1.375H13.0625C12.6978 1.375 12.3481 1.51987 12.0902 1.77773C11.8324 2.03559 11.6875 2.38533 11.6875 2.75V12.7779L15.3258 9.13825C15.4548 9.00916 15.6299 8.93663 15.8125 8.93663C15.9951 8.93663 16.1702 9.00916 16.2992 9.13825C16.4283 9.26734 16.5009 9.44243 16.5009 9.625C16.5009 9.80757 16.4283 9.98266 16.2992 10.1117L11.4867 14.9242C11.4229 14.9883 11.347 15.0391 11.2635 15.0737C11.18 15.1084 11.0904 15.1262 11 15.1262C10.9096 15.1262 10.82 15.1084 10.7365 15.0737C10.653 15.0391 10.5771 14.9883 10.5133 14.9242L5.70075 10.1117C5.63683 10.0478 5.58612 9.97194 5.55153 9.88843C5.51694 9.80491 5.49913 9.7154 5.49913 9.625C5.49913 9.5346 5.51694 9.44509 5.55153 9.36157C5.58612 9.27806 5.63683 9.20217 5.70075 9.13825C5.76467 9.07433 5.84056 9.02362 5.92407 8.98903C6.00759 8.95444 6.0971 8.93663 6.1875 8.93663C6.2779 8.93663 6.36741 8.95444 6.45093 8.98903C6.53444 9.02362 6.61033 9.07433 6.67425 9.13825L10.3125 12.7779V2.75C10.3125 2.02065 10.6022 1.32118 11.118 0.805456C11.6337 0.289731 12.3332 0 13.0625 0L19.25 0C19.9793 0 20.6788 0.289731 21.1945 0.805456C21.7103 1.32118 22 2.02065 22 2.75V19.25C22 19.9793 21.7103 20.6788 21.1945 21.1945C20.6788 21.7103 19.9793 22 19.25 22H2.75C2.02065 22 1.32118 21.7103 0.805456 21.1945C0.289731 20.6788 0 19.9793 0 19.25V2.75C0 2.02065 0.289731 1.32118 0.805456 0.805456C1.32118 0.289731 2.02065 0 2.75 0L6.1875 0C6.36984 0 6.5447 0.0724328 6.67364 0.201364C6.80257 0.330295 6.875 0.505164 6.875 0.6875C6.875 0.869836 6.80257 1.0447 6.67364 1.17364C6.5447 1.30257 6.36984 1.375 6.1875 1.375H2.75Z" fill="white"/>
</g>
<defs>
<clipPath id="clip0_103_34">
<rect width="22" height="22" fill="white"/>
</clipPath>
</defs>
</svg>
